<?xml version="1.0" standalone="no"?><!DOCTYPE svg PUBLIC "-//W3C//DTD SVG 1.1//EN" "http://www.w3.org/Graphics/SVG/1.1/DTD/svg11.dtd"><svg width="100%" height="100%" viewBox="0 0 10 16" version="1.1" xmlns="http://www.w3.org/2000/svg" xmlns:xlink="http://www.w3.org/1999/xlink" xml:space="preserve" style="fill-rule:evenodd;clip-rule:evenodd;stroke-linejoin:round;stroke-miterlimit:1.41421;"><path d="M9.259,0.773c-0.02,-0.121 -0.104,-0.222 -0.219,-0.264c-0.699,-0.255 -1.624,-0.508 -2.616,-0.509c-0.778,0 -1.603,0.159 -2.369,0.606c-0.386,0.224 -0.69,0.508 -0.922,0.827c-0.349,0.48 -0.534,1.032 -0.639,1.592c-0.084,0.453 -0.116,0.915 -0.133,1.363c-0.2,0.004 -0.426,0.006 -0.632,0.006c-0.181,0 -0.346,-0.001 -0.466,-0.003c-0.06,0 -0.108,-0.001 -0.142,-0.001c-0.034,-0.001 -0.052,-0.001 -0.052,-0.001c-0.091,-0.001 -0.18,0.035 -0.244,0.098c-0.065,0.064 -0.101,0.152 -0.101,0.243l0.014,2.254c0.001,0.188 0.153,0.354 0.34,0.354c0.001,0 0.091,0 0.237,0c0.332,0 0.951,-0.015 1.428,-0.005c0.07,1.548 0.087,3.869 0.087,5.669c0,0.759 -0.003,1.421 -0.006,1.897c-0.002,0.238 -0.003,0.427 -0.004,0.558c-0.001,0.131 -0.002,0.201 -0.002,0.201c-0.001,0.091 0.035,0.178 0.099,0.243c0.064,0.064 0.151,0.099 0.242,0.099l3.017,-0.015c0.091,-0.001 0.176,-0.037 0.24,-0.102c0.064,-0.064 0.099,-0.15 0.098,-0.241c0,0 -0.016,-1.855 -0.035,-3.856c-0.015,-1.721 -0.033,-3.548 -0.043,-4.399c0.186,-0.003 0.403,-0.004 0.614,-0.004c0.247,0 0.487,0.002 0.665,0.003c0.088,0.001 0.162,0.002 0.213,0.002c0.051,0.001 0.08,0.001 0.08,0.001c0.091,0.001 0.178,-0.034 0.243,-0.097c0.064,-0.064 0.101,-0.151 0.101,-0.241l0.004,-2.088c0,-0.091 -0.035,-0.207 -0.1,-0.271c-0.064,-0.064 -0.15,-0.129 -0.241,-0.129c0,0 -0.04,0 -0.113,0c-0.072,0 -0.174,0.03 -0.298,0.03c-0.378,0 -0.951,0.014 -1.404,0.006c0.009,-0.231 0.029,-0.428 0.064,-0.603c0.032,-0.17 0.078,-0.308 0.131,-0.421c0.04,-0.085 0.085,-0.152 0.133,-0.208c0.072,-0.084 0.151,-0.141 0.252,-0.183c0.101,-0.042 0.228,-0.067 0.391,-0.067c0.288,-0.001 0.685,0.084 1.182,0.276c0.003,0.002 0.008,0.002 0.011,0.003c0.004,0.002 0.008,0.004 0.012,0.005c0.007,0.003 0.014,0.003 0.021,0.004c0.012,0.003 0.023,0.006 0.035,0.007c0.011,0.002 0.022,0.002 0.032,0.002c0.012,0.001 0.022,0.001 0.034,0c0.011,-0.001 0.022,-0.002 0.032,-0.004c0.011,-0.002 0.022,-0.004 0.032,-0.007c0.01,-0.002 0.021,-0.006 0.031,-0.01c0.01,-0.004 0.02,-0.008 0.03,-0.013c0.01,-0.004 0.019,-0.01 0.028,-0.015c0.009,-0.006 0.019,-0.012 0.028,-0.019c0.008,-0.006 0.016,-0.013 0.023,-0.02c0.009,-0.008 0.017,-0.016 0.024,-0.024c0.008,-0.008 0.014,-0.017 0.021,-0.025c0.006,-0.009 0.013,-0.018 0.019,-0.028c0.005,-0.01 0.01,-0.02 0.015,-0.031c0.003,-0.006 0.007,-0.013 0.01,-0.02c0.002,-0.004 0.002,-0.008 0.004,-0.012c0.001,-0.004 0.003,-0.007 0.004,-0.011c0.069,-0.226 0.186,-0.604 0.287,-1.003c0.051,-0.201 0.097,-0.406 0.132,-0.605c0.034,-0.198 0.058,-0.388 0.058,-0.565c-0.001,-0.078 -0.005,-0.153 -0.017,-0.229ZM6.413,2.607c-0.168,0.087 -0.315,0.21 -0.432,0.357c-0.177,0.222 -0.29,0.494 -0.361,0.804c-0.072,0.311 -0.102,0.662 -0.102,1.059c0,0.04 0,0.082 0.001,0.123c0.003,0.182 0.147,0.279 0.328,0.285c0.483,0.015 1.274,-0.032 1.757,-0.032c0.025,0 0.049,0 0.073,0l-0.003,1.454c-0.173,-0.001 -0.395,0.022 -0.624,0.022c-0.361,0 -0.736,0.016 -0.974,0.028c-0.183,0.009 -0.326,0.167 -0.323,0.35c0.009,0.58 0.03,2.731 0.048,4.732c0.009,1 0.018,1.966 0.024,2.68c0.003,0.346 0.006,0.634 0.007,0.838l-2.332,0.012c0.003,-0.45 0.008,-1.303 0.008,-2.325c0,-1.933 -0.018,-4.463 -0.103,-6.026c-0.01,-0.176 -0.151,-0.315 -0.327,-0.321c-0.459,-0.016 -1.223,-0.019 -1.663,-0.019l-0.01,-1.557c0.096,0.001 0.207,0.002 0.324,0.002c0.331,-0.001 0.712,-0.004 0.981,-0.02c0.176,-0.01 0.315,-0.153 0.319,-0.329c0.019,-0.714 0.059,-1.439 0.249,-2.056c0.094,-0.308 0.224,-0.589 0.404,-0.836c0.18,-0.247 0.409,-0.462 0.715,-0.64c0.643,-0.375 1.339,-0.513 2.028,-0.513c0.783,-0.001 1.55,0.183 2.17,0.393c-0.005,0.106 -0.021,0.237 -0.046,0.379c-0.045,0.262 -0.119,0.56 -0.195,0.834c-0.034,0.125 -0.069,0.244 -0.102,0.353c-0.4,-0.129 -0.756,-0.199 -1.081,-0.2c-0.277,0 -0.534,0.053 -0.758,0.169Z" style="fill:#706558;fill-rule:nonzero;"/></svg>