<?xml version="1.0" standalone="no"?><!DOCTYPE svg PUBLIC "-//W3C//DTD SVG 1.1//EN" "http://www.w3.org/Graphics/SVG/1.1/DTD/svg11.dtd"><svg width="100%" height="100%" viewBox="0 0 20 16" version="1.1" xmlns="http://www.w3.org/2000/svg" xmlns:xlink="http://www.w3.org/1999/xlink" xml:space="preserve" style="fill-rule:evenodd;clip-rule:evenodd;stroke-linejoin:round;stroke-miterlimit:1.41421;"><path d="M19.676,1.904c-0.085,-0.108 -0.221,-0.163 -0.357,-0.143c-0.081,0.011 -0.183,0.032 -0.315,0.06c-0.123,0.027 -0.273,0.063 -0.44,0.104c0.064,-0.147 0.118,-0.299 0.166,-0.459c0.079,-0.262 0.144,-0.54 0.212,-0.836c0.034,-0.148 -0.022,-0.302 -0.143,-0.394c-0.122,-0.092 -0.285,-0.104 -0.419,-0.03c-0.6,0.331 -1.049,0.541 -1.437,0.679c-0.327,0.115 -0.614,0.181 -0.93,0.226c-0.37,-0.349 -0.785,-0.617 -1.23,-0.801c-0.503,-0.208 -1.042,-0.31 -1.592,-0.31c-0.658,0 -1.332,0.145 -1.992,0.423c-0.32,0.135 -0.618,0.335 -0.888,0.58c-0.404,0.368 -0.744,0.837 -0.988,1.359c-0.243,0.523 -0.39,1.1 -0.39,1.685c0,0.062 0.002,0.123 0.005,0.184c-0.011,-0.002 -0.02,-0.005 -0.03,-0.007c-0.7,-0.186 -1.778,-0.553 -2.848,-1.03c-0.439,-0.195 -1.045,-0.584 -1.637,-1.086c-0.593,-0.501 -1.177,-1.115 -1.599,-1.754c-0.064,-0.097 -0.168,-0.16 -0.283,-0.171c-0.115,-0.012 -0.229,0.029 -0.311,0.11c-0.183,0.183 -0.339,0.352 -0.472,0.521c-0.199,0.253 -0.347,0.508 -0.447,0.787c-0.1,0.278 -0.153,0.572 -0.184,0.908c-0.022,0.227 -0.037,0.471 -0.037,0.723c0.001,0.556 0.07,1.152 0.308,1.693c-0.182,0.022 -0.326,0.169 -0.339,0.354c-0.01,0.145 -0.015,0.287 -0.015,0.427c0,1.254 0.4,2.275 1.027,2.984c0.062,0.069 0.125,0.134 0.191,0.198c0,0.003 -0.001,0.005 -0.001,0.008c-0.001,0.026 -0.001,0.05 -0.001,0.075c0,0.479 0.124,0.928 0.333,1.326c0.315,0.597 0.815,1.081 1.392,1.434c0.213,0.13 0.436,0.242 0.666,0.336c-0.969,0.31 -1.769,0.381 -2.428,0.381c-0.292,0 -0.558,-0.014 -0.8,-0.028c-0.243,-0.015 -0.462,-0.031 -0.669,-0.031c-0.049,0 -0.097,0.001 -0.145,0.003c-0.116,0.005 -0.222,0.061 -0.291,0.154c-0.069,0.093 -0.093,0.21 -0.066,0.323c0.114,0.464 0.39,0.886 0.771,1.259c0.574,0.56 1.392,1.02 2.375,1.35c0.983,0.328 2.131,0.522 3.364,0.522c1.798,0 3.777,-0.413 5.665,-1.44c1.724,-0.94 3.159,-2.48 4.021,-4.196c0.298,-0.593 0.623,-1.36 0.877,-2.175c0.254,-0.815 0.438,-1.675 0.438,-2.47c0,-0.269 -0.022,-0.531 -0.072,-0.782c0.219,-0.157 0.414,-0.31 0.59,-0.465c0.349,-0.306 0.625,-0.623 0.854,-0.979c0.23,-0.356 0.413,-0.747 0.596,-1.209c0.052,-0.127 0.031,-0.272 -0.055,-0.38ZM18.05,3.628c-0.253,0.265 -0.576,0.527 -1.013,0.826c-0.138,0.095 -0.2,0.268 -0.152,0.429c0.072,0.239 0.108,0.524 0.108,0.837c0.001,0.673 -0.164,1.474 -0.403,2.24c-0.239,0.767 -0.551,1.502 -0.831,2.059c-0.788,1.575 -2.13,3.011 -3.7,3.864c-1.764,0.959 -3.616,1.346 -5.296,1.346c-1.536,0.001 -2.928,-0.326 -3.957,-0.819c-0.515,-0.246 -0.939,-0.534 -1.244,-0.833c-0.135,-0.132 -0.245,-0.265 -0.334,-0.398c0.048,0.004 0.097,0.006 0.148,0.01c0.246,0.015 0.53,0.03 0.847,0.03c0.971,0.001 2.26,-0.149 3.847,-0.877c0.159,-0.073 0.248,-0.242 0.219,-0.414c-0.028,-0.172 -0.168,-0.303 -0.342,-0.32c-0.35,-0.035 -0.714,-0.13 -1.06,-0.277c-0.518,-0.22 -0.992,-0.557 -1.326,-0.965c-0.167,-0.203 -0.299,-0.424 -0.39,-0.657c-0.017,-0.043 -0.031,-0.087 -0.045,-0.131c0.098,0.039 0.195,0.074 0.293,0.102c0.314,0.091 0.602,0.125 0.959,0.128c0.003,0.001 -0.02,0.004 -0.02,0.004l0,0.068c0,0 0.062,0 0.063,0c0.212,0 0.385,-0.205 0.388,-0.416c0.003,-0.212 -0.166,-0.404 -0.378,-0.408c-0.644,-0.012 -1.29,-0.312 -1.782,-0.868c-0.428,-0.485 -0.742,-1.176 -0.816,-2.068c0.12,0.021 0.246,0.031 0.39,0.044c0.189,0.017 0.409,0.033 0.673,0.062c0.198,0.022 0.38,-0.11 0.421,-0.305c0.04,-0.194 -0.074,-0.389 -0.264,-0.447c-0.244,-0.077 -0.429,-0.187 -0.58,-0.327c-0.113,-0.104 -0.207,-0.226 -0.285,-0.364c-0.119,-0.206 -0.202,-0.451 -0.254,-0.717c-0.052,-0.266 -0.073,-0.551 -0.073,-0.834c0,-0.222 0.013,-0.442 0.033,-0.65c0.019,-0.2 0.045,-0.367 0.08,-0.514c0.055,-0.219 0.128,-0.392 0.25,-0.582c0.063,-0.099 0.142,-0.202 0.238,-0.314c0.43,0.566 0.943,1.085 1.463,1.525c0.641,0.54 1.286,0.961 1.821,1.201c0.741,0.33 1.479,0.607 2.11,0.814c0.315,0.104 0.604,0.19 0.854,0.256c0.25,0.067 0.461,0.114 0.631,0.139c0.128,0.019 0.255,-0.026 0.342,-0.121c0.087,-0.096 0.12,-0.227 0.089,-0.352c-0.046,-0.19 -0.069,-0.387 -0.069,-0.587c-0.001,-0.606 0.209,-1.245 0.546,-1.776c0.168,-0.265 0.367,-0.504 0.581,-0.698c0.213,-0.195 0.442,-0.346 0.668,-0.441c0.575,-0.242 1.148,-0.362 1.693,-0.362c0.456,0 0.891,0.084 1.297,0.251c0.404,0.168 0.779,0.419 1.111,0.763c0.006,0.006 0.012,0.01 0.018,0.015c0.01,0.009 0.02,0.019 0.031,0.027c0.01,0.007 0.021,0.013 0.031,0.02c0.011,0.006 0.022,0.012 0.033,0.018c0.012,0.005 0.023,0.01 0.035,0.014c0.012,0.004 0.023,0.008 0.036,0.011c0.012,0.003 0.024,0.005 0.036,0.007c0.012,0.002 0.024,0.004 0.037,0.004c0.013,0.001 0.027,0 0.041,0c0.007,-0.001 0.015,0 0.023,-0.001c0.43,-0.048 0.834,-0.131 1.28,-0.289c0.243,-0.086 0.498,-0.194 0.779,-0.329c-0.049,0.161 -0.102,0.305 -0.162,0.426c-0.074,0.15 -0.156,0.268 -0.252,0.363c-0.097,0.095 -0.21,0.171 -0.366,0.232c-0.193,0.076 -0.291,0.289 -0.224,0.485c0.068,0.195 0.277,0.303 0.475,0.243c0.475,-0.142 0.912,-0.261 1.261,-0.348c-0.014,0.026 -0.027,0.054 -0.041,0.079c-0.176,0.333 -0.366,0.602 -0.62,0.867Z" style="fill:#706558;fill-rule:nonzero;"/></svg>